<svg xmlns="http://www.w3.org/2000/svg" version="1.1" xmlns:xlink="http://www.w3.org/1999/xlink" xmlns:svgjs="http://svgjs.dev/svgjs" width="1000" height="1000" viewBox="0 0 1000 1000"><rect width="1000" height="1000" fill="#ffffff"></rect><g transform="matrix(0.7,0,0,0.7,149.90044910179654,149.90044910179637)"><svg viewBox="0 0 334 334" data-background-color="#ffffff" preserveAspectRatio="xMidYMid meet" height="1000" width="1000" xmlns="http://www.w3.org/2000/svg" xmlns:xlink="http://www.w3.org/1999/xlink"><g id="tight-bounds" transform="matrix(1,0,0,1,0.04749999999998522,0.04750000000001364)"><svg viewBox="0 0 333.90454557049503 333.90454557049503" height="333.90454557049503" width="333.90454557049503"><g><svg></svg></g><g><svg viewBox="0 0 333.90454557049503 333.90454557049503" height="333.90454557049503" width="333.90454557049503"><g><path d="M0 166.952c0-92.205 74.747-166.952 166.952-166.952 92.205 0 166.952 74.747 166.953 166.952 0 92.205-74.747 166.952-166.953 166.953-92.205 0-166.952-74.747-166.952-166.953zM166.952 329.373c89.702 0 162.421-72.718 162.421-162.421 0-89.702-72.718-162.421-162.421-162.42-89.702 0-162.421 72.718-162.42 162.42 0 89.702 72.718 162.421 162.42 162.421z" data-fill-palette-color="tertiary" fill="#000000" stroke="transparent"></path><ellipse rx="160.27418187383762" ry="160.27418187383762" cx="166.95227278524752" cy="166.95227278524752" fill="#000000" stroke="transparent" stroke-width="0" fill-opacity="1" data-fill-palette-color="tertiary"></ellipse></g><g transform="matrix(1,0,0,1,106.1932387711385,71.17305217166896)"><svg viewBox="0 0 121.51806802821804 191.55844122715712" height="191.55844122715712" width="121.51806802821804"><g><svg viewBox="0 0 121.51806802821804 191.55844122715712" height="191.55844122715712" width="121.51806802821804"><g><svg viewBox="0 0 213.1584412271571 336.0183337213938" height="191.55844122715712" width="121.51806802821804"><g transform="matrix(1,0,0,1,0,172.59072812308372)"><svg viewBox="0 0 213.1584412271571 163.42760559831007" height="163.42760559831007" width="213.1584412271571"><g id="textblocktransform"><svg viewBox="0 0 213.1584412271571 163.42760559831007" height="163.42760559831007" width="213.1584412271571" id="textblock"><g><svg viewBox="0 0 213.1584412271571 88.14504130268126" height="88.14504130268126" width="213.1584412271571"><g transform="matrix(1,0,0,1,0,0)"><svg width="213.1584412271571" viewBox="2.3499999046325684 -41 100.59000396728516 41.599998474121094" height="88.14504130268126" data-palette-color="#ffffff"><path d="M7.1-8.1L8.35-4.15Q8.7-3.6 9.98-3.15 11.25-2.7 12.55-2.7L12.55-2.7Q14.6-2.7 15.68-3.58 16.75-4.45 16.75-5.85L16.75-5.85Q16.75-7.35 15.35-8.33 13.95-9.3 10.75-10.7L10.75-10.7 8.85-11.55Q5.6-13 3.98-15.08 2.35-17.15 2.35-20.35L2.35-20.35Q2.35-22.65 3.7-24.48 5.05-26.3 7.6-27.35 10.15-28.4 13.6-28.4L13.6-28.4Q16-28.4 17.75-28.1 19.5-27.8 21.3-27.35L21.3-27.35Q22.5-27 23.1-26.95L23.1-26.95 23.1-20.15 18.65-20.15 17.35-24Q17.1-24.45 16.15-24.83 15.2-25.2 14-25.2L14-25.2Q12.1-25.2 11-24.38 9.9-23.55 9.9-22.15L9.9-22.15Q9.9-20.55 11.15-19.63 12.4-18.7 15.15-17.45L15.15-17.45 16.2-17Q20.25-15.3 22.55-13.33 24.85-11.35 24.85-7.9L24.85-7.9Q24.85-4.2 21.9-1.83 18.95 0.55 13.2 0.55L13.2 0.55Q10.55 0.55 8.5 0.13 6.45-0.3 4-1L4-1 2.35-1.45 2.35-8.1 7.1-8.1ZM27.8-8Q27.8-12.4 32.27-14.75 36.75-17.1 44.05-17.15L44.05-17.15 44.05-18.15Q44.05-19.95 43.65-21 43.25-22.05 42.2-22.58 41.15-23.1 39.1-23.1L39.1-23.1Q36.65-23.1 34.72-22.53 32.8-21.95 30.7-21L30.7-21 29-24.6Q29.8-25.25 31.6-26.18 33.4-27.1 35.92-27.78 38.45-28.45 41.2-28.45L41.2-28.45Q45.2-28.45 47.47-27.4 49.75-26.35 50.72-24.15 51.7-21.95 51.7-18.15L51.7-18.15 51.7-3.3 54.3-3.3 54.3-0.15Q53.15 0.1 51.1 0.35 49.05 0.6 47.6 0.6L47.6 0.6Q45.7 0.6 45.07 0.05 44.45-0.5 44.45-2.15L44.45-2.15 44.45-3.3Q43.2-1.8 41.1-0.63 39 0.55 36.25 0.55L36.25 0.55Q33.9 0.55 31.97-0.48 30.05-1.5 28.92-3.43 27.8-5.35 27.8-8L27.8-8ZM40.15-4.05Q41.05-4.05 42.15-4.58 43.25-5.1 44.05-5.85L44.05-5.85 44.05-13.8Q40.15-13.8 38.27-12.4 36.4-11 36.4-8.8L36.4-8.8Q36.4-6.55 37.4-5.3 38.4-4.05 40.15-4.05L40.15-4.05ZM63.1-32.1Q61.15-32.1 59.95-33.25 58.75-34.4 58.75-36.2L58.75-36.2Q58.75-38.3 60.07-39.65 61.4-41 63.65-41L63.65-41Q65.9-41 67.09-39.85 68.3-38.7 68.3-36.9L68.3-36.9Q68.3-34.75 66.95-33.43 65.59-32.1 63.15-32.1L63.15-32.1 63.1-32.1ZM60.05-3.75L60.05-22.55 56.7-23.5 56.7-27.25 66.7-28.45 66.8-28.45 68.34-27.4 68.34-3.75 71.34-3.3 71.34 0 56.95 0 56.95-3.3 60.05-3.75ZM85.14 0.55Q80.34 0.55 77.34-2.9 74.34-6.35 74.34-13.25L74.34-13.25Q74.34-17.4 76.07-20.88 77.79-24.35 81.17-26.43 84.54-28.5 89.34-28.5L89.34-28.5Q90.79-28.5 92.34-28.15L92.34-28.15 92.34-36.1 87.54-36.8 87.54-40 98.59-41 98.84-41 100.34-39.8 100.34-3.35 102.94-3.35 102.94-0.15Q99.09 0.6 96.54 0.6L96.54 0.6Q94.79 0.6 94.02 0.03 93.24-0.55 93.24-2.2L93.24-2.2 93.24-3.45Q92.04-1.7 89.79-0.58 87.54 0.55 85.14 0.55L85.14 0.55ZM88.14-3.95Q89.54-3.95 90.62-4.53 91.69-5.1 92.34-5.9L92.34-5.9 92.34-24Q91.99-24.45 91.07-24.75 90.14-25.05 89.09-25.05L89.09-25.05Q86.29-25.05 84.64-22.38 82.99-19.7 82.99-13.65L82.99-13.65Q82.99-8.7 84.39-6.33 85.79-3.95 88.14-3.95L88.14-3.95Z" opacity="1" transform="matrix(1,0,0,1,0,0)" fill="#ffffff" class="wordmark-text-0" data-fill-palette-color="quaternary" id="text-0"></path></svg></g></svg></g><g transform="matrix(1,0,0,1,0,108.95397007325305)"><svg viewBox="0 0 213.1584412271571 54.47363552505702" height="54.47363552505702" width="213.1584412271571"><g transform="matrix(1,0,0,1,0,0)"><svg width="213.1584412271571" viewBox="4.75 -29.5 115.44000244140625 29.5" height="54.47363552505702" data-palette-color="#ffffff"><path d="M9.45-0.05L9.45-1.5 28.75-1.5 28.75-26.9 17.5-15.65 6.25-26.9 6.25 0 4.75-0.05 4.75-29 6.25-29 17.5-17.75 28.75-29 30.25-29 30.25 0 9.45-0.05ZM63.87 0L63.87-29 65.37-29 65.37 0 63.87 0ZM101.64 0L101.64-1.5 117.94-1.5 107.69-25.65 96.79 0 95.19 0 107.69-29.5 120.19 0 101.64 0Z" opacity="1" transform="matrix(1,0,0,1,0,0)" fill="#ffffff" class="slogan-text-1" data-fill-palette-color="quaternary" id="text-1"></path></svg></g></svg></g></svg></g></svg></g><g transform="matrix(1,0,0,1,40.713262274387006,0)"><svg viewBox="0 0 131.7319166783831 151.78179935251194" height="151.78179935251194" width="131.7319166783831"><g><svg xmlns="http://www.w3.org/2000/svg" data-name="Layer 1" viewBox="14.119999885559082 9.420000076293945 61.7599983215332 71.16000366210938" x="0" y="0" height="151.78179935251194" width="131.7319166783831" class="icon-icon-0" data-fill-palette-color="quaternary" id="icon-0"><path d="M45.13 9.42L14.25 27.1l-0.13 35.58 30.75 17.9L75.75 62.9l0.13-35.58Zm-29 52.11l0.12-33.27L45.12 11.73 73.87 28.47h0L45 45l-0.12 33.27Z" fill="#ffffff" data-fill-palette-color="quaternary"></path></svg></g></svg></g><g></g></svg></g></svg></g></svg></g></svg></g><defs></defs></svg><rect width="333.90454557049503" height="333.90454557049503" fill="none" stroke="none" visibility="hidden"></rect></g></svg></g></svg>